<svg xmlns="http://www.w3.org/2000/svg" width="540.001" height="487.37" viewBox="0 0 540.001 487.37">
  <g id="alert" transform="translate(14 -12.315)">
    <g id="Group_468" data-name="Group 468">
      <g id="Group_467" data-name="Group 467">
        <path id="Path_1372" data-name="Path 1372" d="M503.839,395.379,308.139,56.417a60.205,60.205,0,0,0-104.278,0L8.162,395.378A60.2,60.2,0,0,0,60.3,485.685H451.7a60.2,60.2,0,0,0,52.14-90.306Zm-25.978,45.207a29.9,29.9,0,0,1-26.162,15.1H60.3a30.208,30.208,0,0,1-26.162-45.312L229.84,71.416a30.208,30.208,0,0,1,52.322,0l195.7,338.962A29.9,29.9,0,0,1,477.861,440.586Z" fill="#ff6060" stroke="#ff6060" stroke-width="28"/>
      </g>
    </g>
    <g id="Group_470" data-name="Group 470">
      <g id="Group_469" data-name="Group 469">
        <rect id="Rectangle_84" data-name="Rectangle 84" width="29.996" height="149.982" transform="translate(241.001 176.01)" fill="#ff6060" stroke="#ff6060" stroke-width="28"/>
      </g>
    </g>
    <g id="Group_472" data-name="Group 472">
      <g id="Group_471" data-name="Group 471">
        <path id="Path_1373" data-name="Path 1373" d="M256,355.99a20,20,0,1,0,20,20A20.021,20.021,0,0,0,256,355.99Z" fill="#ff6060" stroke="#ff6060" stroke-width="28"/>
      </g>
    </g>
  </g>
</svg>
